HIERARCHY
ROOT Hips
{
	OFFSET 0.00000 0.00000 0.00000
	CHANNELS 6 Xposition Yposition Zposition Yrotation Zrotation Xrotation 
	JOINT Lumbar
	{
		OFFSET 0 0 0
		CHANNELS 3 Zrotation Xrotation Yrotation
		JOINT Neck
		{
			OFFSET 0.00 0.2701 0.00
			CHANNELS 3 Zrotation Xrotation Yrotation
			End Site
			{
				OFFSET 0.00 0.1379 0.00
			}
		}
		JOINT RightShoulder
		{
			OFFSET 0.0119 0.2289 0.1181
			CHANNELS 3 Zrotation Xrotation Yrotation
			JOINT RightElbow
			{
				OFFSET 0.00 -0.1475 0.00
				CHANNELS 2 Zrotation Yrotation
				JOINT RightWrist
				{
					OFFSET 0.00 -0.1605 0.00
					CHANNELS 2 Zrotation Xrotation
					End Site
					{
						OFFSET 0.0040 -0.1068 0.0006
					}
				}
			}
		}
		JOINT LeftShoulder
		{
			OFFSET 0.0119 0.2289 -0.1181
			CHANNELS 3 Zrotation Xrotation Yrotation
			JOINT LeftElbow
			{
				OFFSET 0.00 -0.1475 0.00
				CHANNELS 2 Zrotation Yrotation
				JOINT LeftWrist
				{
					OFFSET 0.00 -0.1605 0.00
					CHANNELS 2 Zrotation Xrotation
					End Site
					{
						OFFSET 0.0040 -0.1068 -0.0006
					}
				}
			}
		}
	}
	JOINT RightHip
	{
		OFFSET 0.0316 -0.0424 0.0458
		CHANNELS 3 Zrotation Xrotation Yrotation
		JOINT RightKnee
		{
			OFFSET 0.00 -0.2438 0.00
			CHANNELS 1 Zrotation
			JOINT RightAnkle
			{
				OFFSET 0.00 -0.2449 0.00
				CHANNELS 3 Zrotation Xrotation Yrotation
				End Site
				{
					OFFSET 0.1237 -0.0542 0.0051
				}
			}
		}
	}
	JOINT LeftHip
	{
		OFFSET 0.0316 -0.0424 -0.0458
		CHANNELS 3 Zrotation Xrotation Yrotation
		JOINT LeftKnee
		{
			OFFSET 0.00 -0.2438 0.00
			CHANNELS 1 Zrotation
			JOINT LeftAnkle
			{
				OFFSET 0.00 -0.2449 0.00
				CHANNELS 3 Zrotation Xrotation Yrotation
				End Site
				{
					OFFSET 0.1237 -0.0542 -0.0051
				}
			}
		}
	}
}
MOTION
Frames: 19
Frame Time: 0.02
0.0186 0.00499 -0.01009 47.84827 -31.4734 -10.63611 46.13643 1.80701 14.06431 13.10761 6.41398 -2.11971 79.89557 -14.68659 55.63401 5.78694 92.88708 4.11868 3.1939 -61.01229 16.76778 -55.32399 102.61471 -89.90217 30.63773 1.3461 40.31778 0.29578 -10.81912 -19.08969 -6.30781 -1.90031 -3.13977 43.22508 4.65459 8.68555 -24.16742 -6.56504 1.36246 2.91379
0.0187 0.00502 -0.01019 47.74647 -31.42051 -10.63159 46.12304 1.80467 13.84855 12.93176 6.49478 -2.11971 80.62442 -14.37154 55.63389 5.78678 92.75298 3.88618 3.19396 -61.04097 16.54531 -55.3145 102.47546 -89.61613 30.21181 1.47244 40.24667 0.26795 -11.01659 -19.07665 -6.30995 -1.86886 -3.12407 43.15321 4.63731 8.59 -24.16613 -6.5588 1.37994 2.92147
0.0188 0.00504 -0.01028 47.66192 -31.34746 -10.62822 46.09242 1.79638 13.59195 12.72776 6.57235 -2.11971 81.19685 -14.03105 55.6336 5.78713 92.87256 3.6622 3.19423 -61.08623 16.28974 -55.30397 102.30337 -89.52062 29.75537 1.69008 40.14687 0.2356 -11.27005 -19.06326 -6.31234 -1.8311 -3.10553 43.05724 4.62494 8.49645 -24.16594 -6.55262 1.39697 2.92849
0.01891 0.00507 -0.01038 47.56974 -31.28458 -10.62493 46.07098 1.79038 13.36196 12.54258 6.6483 -2.11971 81.79084 -13.7155 55.63358 5.78687 92.84152 3.44839 3.18399 -61.13031 16.0542 -55.29624 102.15021 -89.33353 29.31038 1.86472 40.061 0.20659 -11.4944 -19.05064 -6.31452 -1.79669 -3.08857 42.97308 4.60867 8.39102 -24.16542 -6.54611 1.41582 2.93654
0.01899 0.0051 -0.01046 47.47553 -31.21828 -10.61911 46.04448 1.78604 13.09789 12.33188 6.73826 -2.11971 82.60925 -13.34121 55.63333 5.78646 92.94492 3.17643 3.2172 -61.14963 15.79616 -55.27906 101.98213 -89.16394 28.87092 2.04376 39.97259 0.17184 -11.73652 -19.03539 -6.31715 -1.76008 -3.07029 42.88667 4.59847 8.32717 -24.16419 -6.54081 1.42844 2.94182
0.01913 0.00512 -0.01057 47.39065 -31.15408 -10.61885 46.0239 1.77697 12.89455 12.16763 6.79722 -2.11971 82.91259 -13.08535 55.63276 5.78869 92.8386 3.02464 3.15898 -61.22274 15.57797 -55.2809 101.83589 -89.00063 28.41722 2.23525 39.88213 0.148 -11.95423 -19.02554 -6.3189 -1.72662 -3.05411 42.79869 4.57756 8.18103 -24.16469 -6.53308 1.45338 2.95245
0.01947 0.00512 -0.01079 47.32021 -31.09945 -10.63341 46.02718 1.75505 12.87646 12.13875 6.77972 -2.11971 81.88536 -13.14959 55.63426 5.78416 92.03582 3.23514 2.8646 -61.45185 15.47521 -55.33883 101.76675 -88.85786 27.89921 2.44968 39.7939 0.15676 -12.08839 -19.03073 -6.31797 -1.70345 -3.04457 42.71241 4.52097 7.78216 -24.16992 -6.518 1.51641 2.97985
0.01987 0.00511 -0.01104 47.25995 -31.04773 -10.6536 46.03634 1.72888 12.91972 12.15732 6.72953 -2.11971 80.33191 -13.33798 55.63233 5.78841 91.02418 3.56119 2.47682 -61.73225 15.41489 -55.4153 101.71927 -88.7078 27.37487 2.67248 39.70435 0.17651 -12.19604 -19.04136 -6.31618 -1.68371 -3.03725 42.62522 4.45444 7.30535 -24.17682 -6.5006 1.59108 3.01232
0.02024 0.00511 -0.01127 47.19979 -30.99523 -10.67131 46.04058 1.7054 12.92993 12.15435 6.68886 -2.11971 78.98532 -13.47636 55.63331 5.79329 90.1468 3.81235 2.11952 -61.98143 15.33642 -55.48107 101.65553 -88.52812 26.87414 2.8839 39.61463 0.19039 -12.31724 -19.04945 -6.31491 -1.66236 -3.02884 42.5381 4.39575 6.88105 -24.18287 -6.48468 1.65772 3.04124
0.02062 0.00511 -0.01149 47.1203 -30.93963 -10.68855 46.05368 1.67823 12.96008 12.15127 6.67075 -2.11971 77.77746 -13.5806 55.63909 5.76413 89.11518 4.15531 1.80691 -62.26447 15.24986 -55.55637 101.61633 -88.48934 26.28215 3.12784 39.52695 0.20767 -12.43463 -19.05777 -6.31311 -1.64093 -3.02061 42.4514 4.32317 6.38487 -24.18942 -6.46693 1.73581 3.07535
0.021 0.0051 -0.01175 47.08321 -30.89158 -10.70829 46.04999 1.65816 12.96434 12.15882 6.59777 -2.11971 76.14801 -13.79351 55.62085 5.82619 88.34793 4.33808 1.3863 -62.48913 15.19332 -55.6163 101.5334 -88.15873 25.88247 3.30812 39.43538 0.22072 -12.55227 -19.06698 -6.31218 -1.62068 -3.01263 42.36418 4.27712 6.01955 -24.19521 -6.45247 1.79295 3.09991
0.02135 0.00505 -0.01208 47.16115 -30.86254 -10.73198 45.99802 1.65559 12.87763 12.19525 6.38297 -2.11972 73.56679 -14.20825 55.65055 5.97825 88.39608 4.01924 0.62632 -62.53812 15.18816 -55.62873 101.30925 -86.9713 25.98596 3.28079 39.33089 0.21778 -12.68221 -19.07663 -6.31395 -1.6018 -3.00426 42.27385 4.30654 6.03762 -24.19927 -6.4474 1.78839 3.09638
0.02169 0.00499 -0.01245 47.28119 -30.84138 -10.75827 45.92908 1.66082 12.76364 12.23914 6.11402 -2.11972 70.5656 -14.73951 55.6354 6.24898 88.71018 3.5413 -0.22839 -62.52685 15.21687 -55.62515 101.04361 -85.49791 26.288 3.19317 39.22325 0.21053 -12.81203 -19.08707 -6.31659 -1.58421 -2.99616 42.18366 4.36297 6.18935 -24.20237 -6.44578 1.76255 3.08316
0.02203 0.00493 -0.0128 47.38161 -30.81732 -10.7844 45.8684 1.66469 12.6655 12.27204 5.8685 -2.11972 67.70128 -15.26383 55.56586 6.57347 88.87837 3.15605 -0.99619 -62.54436 15.24284 -55.62929 100.80673 -84.19089 26.51962 3.15352 39.11865 0.20634 -12.93833 -19.09763 -6.31873 -1.56673 -2.98829 42.09461 4.4072 6.27816 -24.20537 -6.44274 1.74713 3.0747
0.02239 0.00486 -0.01316 47.48462 -30.79014 -10.8064 45.80585 1.65963 12.55554 12.33733 5.6259 -2.11972 65.04219 -15.60386 55.81024 6.45449 89.1438 2.68733 -1.94738 -62.55785 15.21271 -55.63224 100.52767 -82.73588 26.67079 3.03162 39.00667 0.19786 -13.07902 -19.10651 -6.32126 -1.54644 -2.97903 41.99984 4.45094 6.37417 -24.21062 -6.43898 1.72897 3.06491
0.0227 0.00482 -0.0135 47.59191 -30.7717 -10.83754 45.74279 1.67452 12.46213 12.338 5.36591 -2.11972 61.86812 -16.34669 55.39221 7.27359 89.27428 2.35496 -2.54418 -62.56465 15.3121 -55.63358 100.32774 -81.51391 27.03243 3.06126 38.91002 0.19715 -13.18979 -19.11885 -6.32324 -1.53225 -2.9727 41.91779 4.50204 6.48703 -24.21105 -6.43757 1.71129 3.05554
0.02288 0.00489 -0.01378 47.70223 -30.77201 -10.89325 45.68484 1.74733 12.42697 12.14397 5.06092 -2.11972 57.33424 -18.23427 53.14118 10.7714 88.95251 2.42151 -2.08385 -62.56811 15.7184 -55.63445 100.34265 -81.07118 27.95943 3.57127 38.85072 0.21884 -13.22038 -19.14171 -6.32311 -1.5347 -2.97441 41.86451 4.56874 6.62251 -24.19742 -6.44173 1.70025 3.04961
0.023 0.00499 -0.01404 47.81502 -30.78154 -10.95795 45.6264 1.83912 12.40758 11.88736 4.74192 -2.11972 52.30904 -20.51132 50.23033 15.18681 88.48941 2.63271 -1.27295 -62.56653 16.26287 -55.63397 100.43987 -80.86256 29.08203 4.22799 38.80814 0.24836 -13.22075 -19.16776 -6.32248 -1.5432 -2.97905 41.82531 4.64162 6.76954 -24.17918 -6.44815 1.69033 3.04442
0.02314 0.00507 -0.01429 47.92571 -30.78899 -11.01869 45.56671 1.91907 12.37734 11.66828 4.43676 -2.11972 47.5352 -22.56928 47.62815 19.10558 88.10168 2.78867 -0.65906 -62.56681 16.7701 -55.63419 100.50989 -80.50112 30.09777 4.78535 38.76152 0.27449 -13.23321 -19.19157 -6.32232 -1.54886 -2.98238 41.78371 4.71047 6.90531 -24.16368 -6.45357 1.67982 3.03897
